<?xml version="1.0"?>
<svg xmlns="http://www.w3.org/2000/svg" width="1250" height="1140" viewbox="0 0 1250 1140">
 <metadata id="metadata8">image/svg+xml</metadata>

 <g>
  <title>background</title>
  <rect fill="none" id="canvas_background" height="1142" width="1252" y="-1" x="-1"/>
 </g>
 <g>
  <title>Layer 1</title>
  <g id="g10" transform="matrix(1.3333333,0,0,-1.3333333,0,1440) ">
   <g id="g12" transform="translate(35.25,-77.25) scale(0.10000000149011612) ">
    <g id="g14" transform="translate(-5978.57177734375,1371.4287109375) scale(1.1779099702835083) ">
     <path fill="transparent" d="m16331.291832,82.469578l-16330.1355,0l0,9186.20958l16330.1355,0l0,-9186.20958" id="path16"/>
    </g>
    <path fill="#b8b7c2" fill-rule="nonzero" d="m4725.056564,11419.160415l40.4,0l-0.1,40.3l-26.5,0l0,12.75l26.6,0l0,40.26l-40.4,0l0,-26.5l-12.7,0l0,26.5l-40.3,0l0,-40.26l26.5,0l0,-12.75l-26.5,0l0,-40.3l40.3,0l0,26.52l12.7,0l0,-26.52" id="path18"/>
    <path fill="#b8b7c2" fill-rule="nonzero" d="m5072.856564,11071.390415l40.3,0l0,40.3l-26.5,0l0,12.75l26.5,0l0,40.31l-40.3,0l0,-26.53l-12.7,0l0,26.53l-40.3,0l0,-40.31l26.5,0l0,-12.75l-26.5,0l0,-40.3l40.3,0l0,26.53l12.7,0l0,-26.53" id="path20"/>
    <path fill="#b8b7c2" fill-rule="nonzero" d="m5422.056564,10722.200415l40.3,-0.01l0,40.31l-26.5,0l0,12.75l26.5,0l0,40.31l-40.3,0l0,-26.53l-12.7,0l0,26.53l-40.4,0l0,-40.31l26.6,0l0,-12.75l-26.6,0l0,-40.31l40.4,0l0,26.53l12.7,0l0,-26.52" id="path22"/>
    <path fill="#b8b7c2" fill-rule="nonzero" d="m5769.856564,10374.420415l40.3,0l0,40.31l-26.5,0l0,12.75l26.5,0l0,40.3l-40.3,0.01l0,-26.53l-12.8,0l0,26.52l-40.3,0l0,-40.3l26.6,0l-0.1,-12.75l-26.5,0l0,-40.31l40.3,0l0,26.53l12.8,0l0,-26.53" id="path24"/>
    <path fill="#b8b7c2" fill-rule="nonzero" d="m6116.856564,10027.370415l40.3,-0.01l0,40.31l-26.5,0l0,12.75l26.5,0l0,40.3l-40.3,0.01l0,-26.53l-12.7,-0.01l0,26.53l-40.3,0l0,-40.3l26.5,0l0,-12.75l-26.5,0l0,-40.31l40.3,0l0,26.53l12.7,0l0,-26.52" id="path26"/>
    <path fill="#b8b7c2" fill-rule="nonzero" d="m6464.656564,9679.600415l40.3,0l0,40.3l-26.5,0l0,12.75l26.5,0l0,40.3l-40.3,0.01l0,-26.53l-12.7,0l0,26.52l-40.3,0l0,-40.3l26.5,0l0,-12.75l-26.6,0l0.1,-40.3l40.3,0l0,26.52l12.7,0l0,-26.52" id="path28"/>
    <path fill="#b8b7c2" fill-rule="nonzero" d="m6813.856564,9330.410415l40.3,-0.01l0,40.31l-26.5,-0.01l0,12.76l26.5,0l0,40.31l-40.3,0l0,-26.53l-12.8,-0.01l0,26.54l-40.3,0l0,-40.31l26.6,0l0,-12.75l-26.6,0l0,-40.31l40.3,0l0,26.53l12.8,0l0,-26.52" id="path30"/>
    <path fill="#b8b7c2" fill-rule="nonzero" d="m7161.656564,8982.630415l40.3,0l0,40.31l-26.6,0l0,12.75l26.6,0l0,40.3l-40.3,0.01l0,-26.53l-12.8,-0.01l0,26.53l-40.3,0l0,-40.3l26.5,0l0,-12.75l-26.5,0l0,-40.31l40.3,0l0,26.53l12.8,0l0,-26.53" id="path32"/>
    <path fill="#b8b7c2" fill-rule="nonzero" d="m7507.956564,8636.280415l40.3,0l0,40.31l-26.5,0l0,12.75l26.5,0l0,40.3l-40.3,0l0,-26.52l-12.7,0l0,26.52l-40.3,0l0,-40.3l26.5,0l0,-12.75l-26.5,0l0,-40.31l40.3,0l0,26.53l12.7,0l0,-26.53" id="path34"/>
    <path fill="#b8b7c2" fill-rule="nonzero" d="m7855.756564,8288.520415l40.3,-0.01l0,40.31l-26.5,-0.01l0,12.76l26.5,0l0,40.31l-40.3,0l0,-26.53l-12.8,-0.01l0,26.54l-40.3,0l0,-40.31l26.6,0l0,-12.75l-26.6,0l0,-40.31l40.3,0l0,26.53l12.8,0l0,-26.52" id="path36"/>
    <path fill="#b8b7c2" fill-rule="nonzero" d="m8204.956564,7939.320415l40.3,0l0,40.3l-26.5,0l0,12.76l26.5,0l0,40.3l-40.3,0l0,-26.53l-12.8,0l0,26.53l-40.3,0l0,-40.3l26.6,0l0,-12.76l-26.6,0l0,-40.3l40.3,0l0,26.53l12.8,0l0,-26.53" id="path38"/>
    <path fill="#b8b7c2" fill-rule="nonzero" d="m8552.656564,7591.550415l40.4,0l0,40.31l-26.6,-0.01l0,12.76l26.6,0l0,40.3l-40.4,0l0,-26.53l-12.7,0l0,26.53l-40.3,0l0,-40.3l26.5,0l0,-12.75l-26.5,0l0,-40.31l40.3,0l0,26.53l12.8,0l-0.1,-26.53" id="path40"/>
    <path fill="#b8b7c2" fill-rule="nonzero" d="m8901.156564,7243.070415l40.3,0l0,40.3l-26.5,0l0,12.75l26.5,0l0,40.31l-40.3,0l0,-26.53l-12.7,0l0,26.53l-40.3,0l0,-40.31l26.5,0l0,-12.75l-26.5,0l0,-40.3l40.3,0l0,26.53l12.7,0l0,-26.53" id="path42"/>
    <path fill="#b8b7c2" fill-rule="nonzero" d="m4374.456564,11068.550415l40.3,-0.01l0,40.31l-26.5,0l0,12.75l26.5,0l0,40.3l-40.3,0l0,-26.52l-12.7,0l0,26.52l-40.3,0l0,-40.3l26.5,0l0,-12.75l-26.5,0l0,-40.31l40.3,0l0,26.53l12.7,0l0,-26.52" id="path44"/>
    <path fill="#b8b7c2" fill-rule="nonzero" d="m4722.256564,10720.780415l40.3,-0.01l0,40.31l-26.5,-0.01l0,12.76l26.5,0l0,40.31l-40.3,0l0,-26.53l-12.8,-0.01l0,26.54l-40.3,0l0,-40.31l26.6,0l0,-12.75l-26.6,0l0,-40.31l40.3,0l0,26.53l12.8,0l0,-26.52" id="path46"/>
    <path fill="#b8b7c2" fill-rule="nonzero" d="m5071.456564,10371.580415l40.3,0l0,40.31l-26.5,0l0,12.75l26.5,0l0,40.3l-40.3,0.01l0,-26.54l-12.8,0l0,26.53l-40.3,0l0,-40.3l26.6,0l0,-12.75l-26.6,0l0,-40.31l40.3,0l0,26.53l12.8,0l0,-26.53" id="path48"/>
    <path fill="#b8b7c2" fill-rule="nonzero" d="m5419.256564,10023.810415l40.3,0l0,40.31l-26.6,-0.01l0,12.76l26.6,0l0,40.3l-40.3,0l0,-26.52l-12.8,-0.01l0,26.53l-40.3,0l0,-40.3l26.5,0l0,-12.75l-26.5,0l0,-40.31l40.3,0l0,26.53l12.8,0l0,-26.53" id="path50"/>
    <path fill="#b8b7c2" fill-rule="nonzero" d="m5766.256564,9676.750415l40.3,0l0,40.31l-26.5,-0.01l0,12.76l26.5,0l0,40.3l-40.3,0l0,-26.53l-12.7,0l0,26.53l-40.3,0l0,-40.3l26.5,0l0,-12.75l-26.5,0l0,-40.31l40.3,0l0,26.53l12.7,0l0,-26.53" id="path52"/>
    <path fill="#b8b7c2" fill-rule="nonzero" d="m6114.056564,9328.980415l40.3,0l0,40.31l-26.5,-0.01l0,12.76l26.5,0l0,40.3l-40.3,0l0,-26.52l-12.8,-0.01l0,26.53l-40.3,0l0,-40.3l26.6,0l0,-12.75l-26.6,0l0,-40.31l40.3,0l0,26.53l12.8,0l0,-26.53" id="path54"/>
    <path fill="#b8b7c2" fill-rule="nonzero" d="m6463.256564,8979.790415l40.3,0l0,40.3l-26.5,0l0,12.76l26.5,0l0,40.3l-40.3,0l0,-26.53l-12.8,0l0,26.53l-40.3,0l0,-40.3l26.6,0l0,-12.76l-26.6,0l0,-40.3l40.3,0l0,26.52l12.8,0l0,-26.52" id="path56"/>
    <path fill="#b8b7c2" fill-rule="nonzero" d="m6811.056564,8632.020415l40.3,0l0,40.3l-26.6,0l0,12.75l26.6,0l0,40.31l-40.3,0l0,-26.53l-12.8,0l0,26.53l-40.3,0l0,-40.31l26.5,0l0,-12.75l-26.5,0l0,-40.3l40.3,0l0,26.53l12.8,0l0,-26.53" id="path58"/>
    <path fill="#b8b7c2" fill-rule="nonzero" d="m7157.356564,8285.670415l40.3,0l0,40.3l-26.5,0l0,12.76l26.5,0l0,40.3l-40.3,0l0,-26.52l-12.7,-0.01l0,26.53l-40.4,0l0,-40.3l26.6,0l0,-12.76l-26.6,0l0,-40.3l40.4,0l0,26.53l12.7,0l0,-26.53" id="path60"/>
    <path fill="#b8b7c2" fill-rule="nonzero" d="m7505.156564,7937.900415l40.3,0l0,40.3l-26.6,0l0,12.76l26.6,0l0,40.3l-40.3,0l0,-26.53l-12.8,0l0,26.53l-40.3,0l0,-40.3l26.5,0l0,-12.76l-26.5,0l0,-40.3l40.3,0l0,26.52l12.8,0l0,-26.52" id="path62"/>
    <path fill="#b8b7c2" fill-rule="nonzero" d="m7854.356564,7588.710415l40.3,0l0,40.3l-26.6,0l0,12.75l26.6,0l0,40.31l-40.3,0l0,-26.53l-12.8,0l0,26.53l-40.3,0l0,-40.31l26.5,0l0,-12.75l-26.5,0l0,-40.3l40.3,0l0,26.53l12.8,0l0,-26.53" id="path64"/>
    <path fill="#b8b7c2" fill-rule="nonzero" d="m8202.056564,7240.940415l40.3,-0.01l0,40.31l-26.5,0l0,12.75l26.5,0l0,40.31l-40.3,0l0,-26.53l-12.7,0l0,26.53l-40.3,0l0,-40.31l26.5,0l0,-12.75l-26.5,0l0,-40.31l40.3,0l0,26.53l12.7,0l0,-26.52" id="path66"/>
    <path fill="#b8b7c2" fill-rule="nonzero" d="m8550.556564,6892.460415l40.3,-0.01l0,40.31l-26.5,0l0,12.75l26.5,0l0,40.31l-40.3,0l0,-26.53l-12.7,0l0,26.53l-40.3,0l0,-40.31l26.5,0l0,-12.75l-26.5,0l0,-40.31l40.3,0l0,26.54l12.7,0l0,-26.53" id="path68"/>
    <path fill="#b8b7c2" fill-rule="nonzero" d="m4029.556564,10723.620415l40.3,-0.01l0,40.31l-26.5,0l0,12.76l26.5,0l0,40.3l-40.3,0l0,-26.53l-12.75,0l0,26.53l-40.3,0l0,-40.3l26.53,0l-0.01,-12.76l-26.52,0l0,-40.31l40.3,0l0,26.54l12.75,0l0,-26.53" id="path70"/>
    <path fill="#b8b7c2" fill-rule="nonzero" d="m4377.356564,10375.850415l40.3,0l0,40.3l-26.6,0l0,12.75l26.6,0l0,40.3l-40.3,0.01l0,-26.53l-12.8,0l0,26.52l-40.3,0l0,-40.3l26.5,0l0,-12.75l-26.5,0l0,-40.3l40.3,0l0,26.52l12.8,0l0,-26.52" id="path72"/>
    <path fill="#b8b7c2" fill-rule="nonzero" d="m4726.556564,10026.660415l40.3,-0.01l0,40.31l-26.6,0l0,12.75l26.6,0l0,40.31l-40.3,0l0,-26.53l-12.8,0l0,26.53l-40.3,0l0,-40.31l26.5,0l0,-12.75l-26.5,0l0,-40.31l40.3,0l0,26.53l12.8,0l0,-26.52" id="path74"/>
    <path fill="#b8b7c2" fill-rule="nonzero" d="m5074.256564,9678.890415l40.3,-0.01l0,40.31l-26.5,0l0,12.75l26.5,0l0,40.31l-40.3,0l0,-26.53l-12.7,-0.01l0,26.54l-40.3,0l0,-40.31l26.5,0l0,-12.75l-26.5,0l0,-40.31l40.3,0l0,26.53l12.7,0l0,-26.52" id="path76"/>
    <path fill="#b8b7c2" fill-rule="nonzero" d="m5421.356564,9331.830415l40.3,-0.01l0,40.31l-26.5,-0.01l0,12.76l26.5,0l0,40.31l-40.3,0l0,-26.53l-12.8,0l0,26.53l-40.3,0l0,-40.31l26.6,0l0,-12.75l-26.6,0l0,-40.31l40.3,0l0,26.53l12.8,0l0,-26.52" id="path78"/>
    <path fill="#b8b7c2" fill-rule="nonzero" d="m5769.156564,8984.050415l40.3,0l0,40.31l-26.6,0l0,12.75l26.6,0l0,40.3l-40.3,0.01l0,-26.53l-12.8,-0.01l0,26.53l-40.3,0l0,-40.3l26.5,0l0,-12.75l-26.5,0l0,-40.31l40.3,0l0,26.53l12.8,0l0,-26.53" id="path80"/>
    <path fill="#b8b7c2" fill-rule="nonzero" d="m6118.356564,8634.860415l40.3,0l0,40.31l-26.6,-0.01l0,12.76l26.6,0l0,40.3l-40.3,0l0,-26.53l-12.8,0l0,26.53l-40.3,0l0,-40.3l26.5,0l0,-12.75l-26.5,0l0,-40.31l40.3,0l0,26.53l12.8,0l0,-26.53" id="path82"/>
    <path fill="#b8b7c2" fill-rule="nonzero" d="m6466.056564,8287.090415l40.3,0l0,40.31l-26.5,-0.01l0,12.76l26.5,0l0,40.3l-40.3,0l0,-26.52l-12.7,-0.01l0,26.53l-40.3,0l0,-40.3l26.5,0l0,-12.75l-26.5,0l0,-40.31l40.3,0l0,26.53l12.7,0l0,-26.53" id="path84"/>
    <path fill="#b8b7c2" fill-rule="nonzero" d="m6812.456564,7940.740415l40.3,0l0,40.31l-26.5,0l0,12.75l26.5,0l0,40.3l-40.3,0.01l0,-26.54l-12.8,0l0,26.53l-40.3,0l0,-40.3l26.6,0l0,-12.75l-26.6,0l0,-40.31l40.3,0l0,26.53l12.8,0l0,-26.53" id="path86"/>
    <path fill="#b8b7c2" fill-rule="nonzero" d="m7160.156564,7592.970415l40.4,0l0,40.31l-26.6,-0.01l0,12.76l26.6,0l0,40.3l-40.4,0l0,-26.52l-12.7,0l0,26.52l-40.3,0l0,-40.3l26.5,0l0,-12.75l-26.5,0l0,-40.31l40.3,0l0,26.53l12.7,0l0,-26.53" id="path88"/>
    <path fill="#b8b7c2" fill-rule="nonzero" d="m7509.356564,7243.780415l40.3,0l0,40.3l-26.5,0l0,12.76l26.5,0l0,40.3l-40.3,0l0,-26.52l-12.7,-0.01l0,26.53l-40.3,0l0,-40.3l26.5,0l0,-12.76l-26.5,0l0,-40.3l40.3,0l0,26.53l12.7,0l0,-26.53" id="path90"/>
    <path fill="#b8b7c2" fill-rule="nonzero" d="m7857.156564,6896.010415l40.3,0l0,40.3l-26.5,0l0,12.76l26.5,0l0,40.3l-40.3,0l0,-26.53l-12.7,0l0,26.53l-40.3,0l0,-40.3l26.5,0l0,-12.76l-26.5,0l0,-40.3l40.3,0l0,26.52l12.7,0l0,-26.52" id="path92"/>
    <path fill="#b8b7c2" fill-rule="nonzero" d="m8205.656564,6547.530415l40.3,0l0,40.3l-26.5,0l0,12.75l26.5,0l0,40.3l-40.3,0.01l0,-26.53l-12.8,0l0,26.52l-40.3,0l0,-40.3l26.6,0l0,-12.75l-26.6,0l0,-40.3l40.3,0l0,26.53l12.8,0l0,-26.53" id="path94"/>
    <path fill="#b8b7c2" fill-rule="nonzero" d="m3678.946564,10373.000415l40.3,0l0,40.31l-26.52,0l0,12.75l26.52,0l0,40.3l-40.3,0.01l0,-26.54l-12.76,0l0,26.53l-40.3,0l0,-40.3l26.53,0l0,-12.75l-26.53,0l0,-40.31l40.3,0l0,26.53l12.76,0l0,-26.53" id="path96"/>
    <path fill="#b8b7c2" fill-rule="nonzero" d="m4026.716564,10025.240415l40.34,-0.01l0,40.31l-26.56,-0.01l0,12.76l26.56,0l0,40.3l-40.34,0l0,-26.52l-12.75,0l0,26.52l-40.31,0l0,-40.3l26.54,0l-0.01,-12.75l-26.53,0l0,-40.31l40.31,0l0,26.53l12.75,0l0,-26.52" id="path98"/>
    <path fill="#b8b7c2" fill-rule="nonzero" d="m4375.956564,9676.040415l40.3,0l0,40.3l-26.6,0l0,12.76l26.6,0l0,40.3l-40.3,0l0,-26.52l-12.8,-0.01l0,26.53l-40.3,0l0,-40.3l26.5,0l0,-12.76l-26.5,0l0,-40.3l40.3,0l0,26.53l12.8,0l0,-26.53" id="path100"/>
    <path fill="#b8b7c2" fill-rule="nonzero" d="m4723.656564,9328.270415l40.3,0l0,40.3l-26.5,0l0,12.76l26.5,0l0,40.3l-40.3,0l0,-26.53l-12.7,0l0,26.53l-40.3,0l0,-40.3l26.5,0l0,-12.76l-26.5,0l0,-40.3l40.3,0l0,26.53l12.7,0l0,-26.53" id="path102"/>
    <path fill="#b8b7c2" fill-rule="nonzero" d="m5070.756564,8981.210415l40.3,0l0,40.3l-26.5,0l0,12.76l26.5,0l0,40.3l-40.3,0.01l0,-26.54l-12.8,0l0,26.53l-40.3,0l0,-40.3l26.6,0l0,-12.76l-26.6,0l0,-40.3l40.3,0l0,26.53l12.8,0l0,-26.53" id="path104"/>
    <path fill="#b8b7c2" fill-rule="nonzero" d="m5418.456564,8633.440415l40.4,0l0,40.31l-26.6,-0.01l0,12.75l26.6,0l0,40.31l-40.4,0l0,-26.53l-12.7,0l0,26.53l-40.3,0l0,-40.31l26.5,0l0,-12.74l-26.5,0l0,-40.31l40.3,0l0,26.53l12.8,0l-0.1,-26.53" id="path106"/>
    <path fill="#b8b7c2" fill-rule="nonzero" d="m5767.656564,8284.250415l40.4,0l0,40.3l-26.6,0l0,12.76l26.6,0l0,40.3l-40.4,0l0,-26.53l-12.7,0l0,26.53l-40.3,0l0,-40.3l26.5,0l0,-12.76l-26.5,0l0,-40.3l40.3,0l0,26.53l12.7,0l0,-26.53" id="path108"/>
    <path fill="#b8b7c2" fill-rule="nonzero" d="m6115.456564,7936.480415l40.3,0l0,40.3l-26.5,0l0,12.75l26.5,0l0,40.31l-40.3,0l0,-26.53l-12.7,0l0,26.53l-40.3,0l0,-40.31l26.5,0l0,-12.75l-26.5,0l0,-40.3l40.3,0l0,26.52l12.7,0l0,-26.52" id="path110"/>
    <path fill="#b8b7c2" fill-rule="nonzero" d="m6461.856564,7590.130415l40.3,0l0,40.31l-26.6,-0.01l0,12.75l26.6,0l0,40.31l-40.3,0l0,-26.53l-12.8,0l0,26.53l-40.3,0l0,-40.31l26.5,0l0,-12.74l-26.5,0l0,-40.31l40.3,0l0,26.53l12.8,0l0,-26.53" id="path112"/>
    <path fill="#b8b7c2" fill-rule="nonzero" d="m6809.556564,7242.360415l40.3,-0.01l0,40.31l-26.5,0l0,12.76l26.5,0l0,40.3l-40.3,0l0,-26.53l-12.7,0l0,26.53l-40.3,0l0,-40.3l26.5,0l0,-12.76l-26.5,0l0,-40.31l40.3,0l0,26.54l12.7,0l0,-26.53" id="path114"/>
    <path fill="#b8b7c2" fill-rule="nonzero" d="m7158.756564,6893.160415l40.3,0l0,40.31l-26.5,0l0,12.75l26.5,0l0,40.3l-40.3,0.01l0,-26.53l-12.7,0l0,26.52l-40.3,0l0,-40.3l26.5,0l0,-12.75l-26.5,0l0,-40.31l40.3,0l0,26.53l12.7,0l0,-26.53" id="path116"/>
    <path fill="#b8b7c2" fill-rule="nonzero" d="m7506.556564,6545.400415l40.3,0l0,40.3l-26.5,0l0,12.75l26.5,0l0,40.31l-40.3,0l0,-26.53l-12.8,-0.01l0,26.54l-40.3,0l0,-40.31l26.6,0l0,-12.75l-26.6,0l0,-40.3l40.3,0l0,26.52l12.8,0l0,-26.52" id="path118"/>
    <path fill="#b8b7c2" fill-rule="nonzero" d="m7855.056564,6196.920415l40.3,-0.01l0,40.31l-26.5,-0.01l0,12.76l26.5,0l0,40.31l-40.3,0l0,-26.53l-12.8,0l0,26.53l-40.3,0l0,-40.31l26.5,0l0,-12.75l-26.5,0l0,-40.31l40.3,0l0,26.53l12.8,0l0,-26.52" id="path120"/>
    <path fill="#b8b7c2" fill-rule="nonzero" d="m3334.026564,10028.080415l40.3,0l0,40.3l-26.53,0l0,12.75l26.53,0l0,40.31l-40.3,0l0,-26.53l-12.76,0l0,26.53l-40.3,0l0,-40.31l26.52,0l0,-12.75l-26.53,0l0.01,-40.3l40.3,0l0,26.53l12.76,0l0,-26.53" id="path122"/>
    <path fill="#b8b7c2" fill-rule="nonzero" d="m3681.786564,9680.310415l40.31,-0.01l-0.01,40.31l-26.52,0l0,12.75l26.53,0l0,40.31l-40.31,0l0,-26.53l-12.75,0l0,26.53l-40.31,0l0,-40.31l26.54,0l0,-12.75l-26.54,0l0,-40.31l40.31,0l0,26.53l12.76,0l-0.01,-26.52" id="path124"/>
    <path fill="#b8b7c2" fill-rule="nonzero" d="m4030.986564,9331.110415l40.27,0l0,40.31l-26.5,0l0,12.75l26.5,0l0,40.3l-40.27,0.01l0,-26.54l-12.76,0l0,26.53l-40.3,0l0,-40.3l26.53,0l0,-12.75l-26.54,0l0.01,-40.31l40.3,0l0,26.53l12.76,0l0,-26.53" id="path126"/>
    <path fill="#b8b7c2" fill-rule="nonzero" d="m4378.756564,8983.350415l40.3,-0.01l0,40.31l-26.5,-0.01l0,12.76l26.5,0l0,40.3l-40.3,0l0,-26.52l-12.8,0l0,26.52l-40.3,0l0,-40.3l26.6,0l0,-12.75l-26.6,0l0,-40.31l40.3,0l0,26.53l12.8,0l0,-26.52" id="path128"/>
    <path fill="#b8b7c2" fill-rule="nonzero" d="m4725.856564,8636.280415l40.3,0l0,40.31l-26.6,0l0,12.75l26.6,0l0,40.3l-40.3,0l0,-26.52l-12.8,0l0,26.52l-40.3,0l0,-40.3l26.5,0l0,-12.75l-26.5,0l0,-40.31l40.3,0l0,26.53l12.8,0l0,-26.53" id="path130"/>
    <path fill="#b8b7c2" fill-rule="nonzero" d="m5073.556564,8288.520415l40.3,-0.01l0,40.31l-26.5,-0.01l0,12.76l26.5,0l0,40.31l-40.3,0l0,-26.53l-12.7,-0.01l0,26.54l-40.3,0l0,-40.31l26.5,0l0,-12.75l-26.5,0l0,-40.31l40.3,0l0,26.53l12.7,0l0,-26.52" id="path132"/>
    <path fill="#b8b7c2" fill-rule="nonzero" d="m5422.756564,7939.320415l40.3,0l0,40.3l-26.5,0l0,12.76l26.5,0l0,40.3l-40.3,0l0,-26.53l-12.7,0l0,26.53l-40.3,0l0,-40.3l26.5,0l0,-12.76l-26.5,0l0,-40.3l40.3,0l0,26.53l12.7,0l0,-26.53" id="path134"/>
    <path fill="#b8b7c2" fill-rule="nonzero" d="m5770.556564,7591.550415l40.3,0l0,40.31l-26.5,-0.01l0,12.76l26.5,0l0,40.3l-40.3,0l0,-26.53l-12.8,0l0,26.53l-40.3,0l0,-40.3l26.6,0l0,-12.75l-26.6,0l0,-40.31l40.3,0l0,26.53l12.8,0l0,-26.53" id="path136"/>
    <path fill="#b8b7c2" fill-rule="nonzero" d="m6116.856564,7245.200415l40.3,0l0,40.31l-26.5,-0.01l0,12.76l26.5,0l0,40.3l-40.3,0.01l0,-26.53l-12.7,-0.01l0,26.53l-40.3,0l0,-40.3l26.5,0l0,-12.75l-26.5,0l0,-40.31l40.3,0l0,26.53l12.7,0l0,-26.53" id="path138"/>
    <path fill="#b8b7c2" fill-rule="nonzero" d="m6464.656564,6897.430415l40.3,0l0,40.31l-26.5,0l0,12.75l26.5,0l0,40.3l-40.3,0l0,-26.53l-12.7,0l0,26.53l-40.3,0l0,-40.3l26.5,0l0,-12.75l-26.6,0l0.1,-40.31l40.3,0l0,26.53l12.7,0l0,-26.53" id="path140"/>
    <path fill="#b8b7c2" fill-rule="nonzero" d="m6813.856564,6548.240415l40.3,0l0,40.3l-26.5,0l0,12.75l26.5,0l0,40.31l-40.3,0l0,-26.53l-12.8,0l0,26.53l-40.3,0l0,-40.31l26.6,0l0,-12.75l-26.6,0l0,-40.3l40.3,0l0,26.53l12.8,0l0,-26.53" id="path142"/>
    <path fill="#b8b7c2" fill-rule="nonzero" d="m7161.656564,6200.470415l40.3,-0.01l0,40.32l-26.6,-0.01l0,12.75l26.6,0l0,40.3l-40.3,0.01l0,-26.53l-12.8,0l0,26.52l-40.3,0l0,-40.3l26.5,0l0,-12.74l-26.5,0l0,-40.32l40.3,0l0,26.54l12.8,0l0,-26.53" id="path144"/>
    <path fill="#b8b7c2" fill-rule="nonzero" d="m7510.056564,5851.990415l40.4,0l0,40.3l-26.6,0l0,12.75l26.6,0l0,40.31l-40.4,0l0,-26.53l-12.7,-0.01l0,26.54l-40.3,0l0,-40.31l26.5,0l0,-12.75l-26.5,0l0,-40.3l40.3,0l0,26.52l12.7,0l0,-26.52" id="path146"/>
    <path fill="#b8b7c2" fill-rule="nonzero" d="m2983.406564,9677.460415l40.3,0l0,40.31l-26.53,-0.01l0,12.76l26.53,0l0,40.3l-40.3,0.01l0,-26.53l-12.75,-0.01l0,26.53l-40.31,0l0,-40.3l26.53,0l0,-12.75l-26.53,0l0,-40.31l40.31,0l0,26.53l12.75,0l0,-26.53" id="path148"/>
    <path fill="#b8b7c2" fill-rule="nonzero" d="m3331.166564,9329.690415l40.32,0l0,40.31l-26.54,0l0,12.75l26.54,0l0,40.3l-40.32,0l0,-26.53l-12.74,0l0,26.53l-40.3,0l0,-40.3l26.52,0l0,-12.75l-26.53,0l0.01,-40.31l40.3,0l0,26.53l12.75,0l-0.01,-26.53" id="path150"/>
    <path fill="#b8b7c2" fill-rule="nonzero" d="m3680.366564,8980.500415l40.31,0l0,40.31l-26.54,-0.01l0,12.76l26.54,0l0,40.3l-40.31,0l0,-26.53l-12.75,0l0,26.53l-40.3,0l0,-40.3l26.52,0l0,-12.75l-26.52,0l0,-40.31l40.3,0l0,26.53l12.75,0l0,-26.53" id="path152"/>
    <path fill="#b8b7c2" fill-rule="nonzero" d="m4028.136564,8632.730415l40.32,0l0,40.3l-26.54,0l0,12.76l26.54,0l0,40.3l-40.32,0l0,-26.53l-12.75,0l0,26.53l-40.31,0l0,-40.3l26.53,0l0,-12.76l-26.53,0l0,-40.3l40.31,0l0,26.53l12.76,0l-0.01,-26.53" id="path154"/>
    <path fill="#b8b7c2" fill-rule="nonzero" d="m4375.156564,8285.670415l40.4,0l-0.1,40.3l-26.5,0l0,12.76l26.6,0l0,40.3l-40.4,0l0,-26.52l-12.7,-0.01l0,26.53l-40.3,0l0,-40.3l26.5,0l0,-12.76l-26.5,0l0,-40.3l40.3,0l0,26.53l12.7,0l0,-26.53" id="path156"/>
    <path fill="#b8b7c2" fill-rule="nonzero" d="m4722.956564,7937.900415l40.3,0l0,40.3l-26.5,0l0,12.76l26.5,0l0,40.3l-40.3,0l0,-26.53l-12.7,0l0,26.53l-40.3,0l0,-40.3l26.5,0l0,-12.76l-26.5,0l0,-40.3l40.3,0l0,26.52l12.7,0l0,-26.52" id="path158"/>
    <path fill="#b8b7c2" fill-rule="nonzero" d="m5072.156564,7588.710415l40.3,0l0,40.3l-26.5,0l0,12.75l26.5,0l0,40.31l-40.3,0l0,-26.53l-12.8,0l0,26.53l-40.3,0l0,-40.31l26.6,0l0,-12.75l-26.6,0l0,-40.3l40.3,0l0,26.53l12.8,0l0,-26.53" id="path160"/>
    <path fill="#b8b7c2" fill-rule="nonzero" d="m5419.956564,7240.940415l40.3,-0.01l0,40.31l-26.5,0l0,12.75l26.5,0l0,40.31l-40.3,0l0,-26.53l-12.8,0l0,26.53l-40.3,0l0,-40.31l26.6,0l-0.1,-12.75l-26.5,0l0,-40.31l40.3,0l0,26.53l12.8,0l0,-26.52" id="path162"/>
    <path fill="#b8b7c2" fill-rule="nonzero" d="m5766.256564,6894.590415l40.3,0l0,40.3l-26.5,0l0,12.75l26.5,0l0,40.31l-40.3,0l0,-26.53l-12.7,0l0,26.53l-40.3,0l0,-40.31l26.5,0l0,-12.75l-26.5,0l0,-40.3l40.3,0l0,26.52l12.7,0l0,-26.52" id="path164"/>
    <path fill="#b8b7c2" fill-rule="nonzero" d="m6114.056564,6546.820415l40.3,-0.01l0,40.31l-26.5,-0.01l0,12.77l26.5,0l0,40.3l-40.3,0l0,-26.53l-12.8,0l0,26.53l-40.3,0l0,-40.3l26.6,0l0,-12.76l-26.6,0l0,-40.31l40.3,0l0,26.54l12.8,0l0,-26.53" id="path166"/>
    <path fill="#b8b7c2" fill-rule="nonzero" d="m6463.256564,6197.620415l40.3,0l0,40.31l-26.5,0l0,12.75l26.5,0l0,40.3l-40.3,0.01l0,-26.53l-12.8,0l0,26.52l-40.3,0l0,-40.3l26.6,0l0,-12.75l-26.6,0l0,-40.31l40.3,0l0,26.54l12.8,0l0,-26.54" id="path168"/>
    <path fill="#b8b7c2" fill-rule="nonzero" d="m6811.056564,5849.860415l40.3,-0.01l0,40.31l-26.6,-0.01l0,12.77l26.6,0l0,40.3l-40.3,0l0,-26.53l-12.8,0l0,26.53l-40.3,0l0,-40.3l26.5,0l0,-12.76l-26.5,0l0,-40.31l40.3,0l0,26.53l12.8,0l0,-26.52" id="path170"/>
    <path fill="#b8b7c2" fill-rule="nonzero" d="m7159.456564,5501.370415l40.3,0l0,40.31l-26.5,0l0,12.75l26.5,0l0,40.3l-40.3,0l0,-26.52l-12.7,0l0,26.52l-40.3,0l0,-40.3l26.5,0l0,-12.75l-26.5,0l0,-40.31l40.3,0l0,26.53l12.7,0l0,-26.53" id="path172"/>
    <path fill="#b8b7c2" fill-rule="nonzero" d="m2638.476564,9332.530415l40.31,0l-0.01,40.31l-26.52,0l0,12.75l26.53,0l0,40.3l-40.31,0.01l0,-26.53l-12.76,0l0,26.52l-40.3,0l0,-40.3l26.54,0l0,-12.75l-26.54,0l0,-40.31l40.3,0l0,26.53l12.76,0l0,-26.53" id="path174"/>
    <path fill="#b8b7c2" fill-rule="nonzero" d="m2986.246564,8984.770415l40.31,-0.01l0,40.31l-26.53,0l0,12.75l26.53,0l0,40.31l-40.31,0l0,-26.53l-12.75,0l0,26.53l-40.3,0l0,-40.31l26.53,0l-0.01,-12.75l-26.52,0l0,-40.31l40.3,0l0,26.53l12.75,0l0,-26.52" id="path176"/>
    <path fill="#b8b7c2" fill-rule="nonzero" d="m3335.436564,8635.570415l40.31,0l-0.01,40.31l-26.52,-0.01l0,12.76l26.53,0l0,40.3l-40.31,0.01l0,-26.53l-12.75,-0.01l0,26.53l-40.3,0l0,-40.3l26.53,0l0,-12.75l-26.53,0l0,-40.31l40.3,0l0,26.53l12.75,0l0,-26.53" id="path178"/>
    <path fill="#b8b7c2" fill-rule="nonzero" d="m3683.216564,8287.800415l40.3,0l0,40.31l-26.53,0l0,12.75l26.53,0l0,40.3l-40.3,0l0,-26.53l-12.76,0l0,26.53l-40.3,0l0,-40.3l26.53,0l-0.01,-12.75l-26.52,0l0,-40.31l40.3,0l0,26.53l12.76,0l0,-26.53" id="path180"/>
    <path fill="#b8b7c2" fill-rule="nonzero" d="m4030.276564,7940.740415l40.28,0l0,40.31l-26.5,0l0,12.75l26.5,0l0,40.3l-40.28,0.01l0,-26.54l-12.76,0l0,26.53l-40.3,0l0,-40.3l26.52,0l0,-12.75l-26.52,0l0,-40.31l40.3,0l0,26.53l12.76,0l0,-26.53" id="path182"/>
    <path fill="#b8b7c2" fill-rule="nonzero" d="m4378.056564,7592.970415l40.3,0l0,40.31l-26.5,-0.01l0,12.76l26.5,0l0,40.3l-40.3,0l0,-26.52l-12.8,0l0,26.52l-40.3,0l0,-40.3l26.6,0l0,-12.75l-26.6,0l0,-40.31l40.3,0l0,26.53l12.8,0l0,-26.53" id="path184"/>
    <path fill="#b8b7c2" fill-rule="nonzero" d="m4727.256564,7243.780415l40.3,0l0,40.3l-26.5,0l0,12.76l26.5,0l0,40.3l-40.3,0l0,-26.52l-12.8,-0.01l0,26.53l-40.3,0l0,-40.3l26.5,0l0,-12.76l-26.5,0l0,-40.3l40.3,0l0,26.53l12.8,0l0,-26.53" id="path186"/>
    <path fill="#b8b7c2" fill-rule="nonzero" d="m5074.956564,6896.010415l40.4,0l0,40.3l-26.6,0l0,12.76l26.6,0l0,40.3l-40.4,0l0,-26.53l-12.7,0l0,26.53l-40.3,0l0,-40.3l26.5,0l0,-12.76l-26.5,0l0,-40.3l40.3,0l0,26.52l12.8,0l-0.1,-26.52" id="path188"/>
    <path fill="#b8b7c2" fill-rule="nonzero" d="m5421.356564,6549.660415l40.3,0l0,40.31l-26.5,0l0,12.75l26.5,0l0,40.3l-40.3,0l0,-26.53l-12.8,0l0,26.53l-40.3,0l0,-40.3l26.6,0l0,-12.75l-26.6,0l0,-40.31l40.3,0l0,26.53l12.8,0l0,-26.53" id="path190"/>
    <path fill="#b8b7c2" fill-rule="nonzero" d="m5769.156564,6201.890415l40.3,0l0,40.3l-26.6,0l0,12.76l26.6,0l0,40.3l-40.3,0l0,-26.52l-12.8,-0.01l0,26.53l-40.3,0l0,-40.3l26.5,0l0,-12.76l-26.5,0l0,-40.3l40.3,0l0,26.52l12.8,0l0,-26.52" id="path192"/>
    <path fill="#b8b7c2" fill-rule="nonzero" d="m6118.356564,5852.700415l40.3,0l0,40.3l-26.6,0l0,12.76l26.6,0l0,40.3l-40.3,0l0,-26.53l-12.8,0l0,26.53l-40.3,0l0,-40.3l26.5,0l0,-12.76l-26.5,0l0,-40.3l40.3,0l0,26.52l12.8,0l0,-26.52" id="path194"/>
    <path fill="#b8b7c2" fill-rule="nonzero" d="m6466.056564,5504.930415l40.3,0l0,40.3l-26.5,0l0,12.75l26.5,0l0,40.31l-40.3,0l0,-26.53l-12.7,0l0,26.53l-40.3,0l0,-40.31l26.5,0l0,-12.75l-26.5,0l0,-40.3l40.3,0l0,26.52l12.7,0l0,-26.52" id="path196"/>
    <path fill="#b8b7c2" fill-rule="nonzero" d="m6814.556564,5156.450415l40.3,-0.01l0,40.31l-26.5,-0.01l0,12.77l26.5,0l0,40.3l-40.3,0l0,-26.53l-12.7,0l0,26.53l-40.3,0l0,-40.3l26.5,0l0,-12.76l-26.5,0l0,-40.31l40.3,0l0,26.53l12.7,0l0,-26.52" id="path198"/>
    <path fill="#b8b7c2" fill-rule="nonzero" d="m2287.856564,8981.920415l40.32,0l-0.01,40.31l-26.53,-0.01l0,12.76l26.54,0l0,40.3l-40.32,0l0,-26.52l-12.74,-0.01l0,26.53l-40.31,0l0,-40.3l26.53,0l0,-12.75l-26.53,0l0,-40.31l40.31,0l0,26.53l12.75,0l-0.01,-26.53" id="path200"/>
    <path fill="#b8b7c2" fill-rule="nonzero" d="m2635.636564,8634.150415l40.3,0l0,40.3l-26.52,0l0,12.76l26.52,0l0,40.3l-40.3,0.01l0,-26.53l-12.76,-0.01l0,26.53l-40.3,0l0,-40.3l26.53,0l-0.01,-12.76l-26.52,0l0,-40.3l40.3,0l0,26.53l12.76,0l0,-26.53" id="path202"/>
    <path fill="#b8b7c2" fill-rule="nonzero" d="m2984.826564,8284.960415l40.31,0l-0.01,40.3l-26.52,0l0,12.75l26.53,0l0,40.31l-40.31,0l0,-26.53l-12.76,0l0,26.53l-40.3,0l0,-40.31l26.53,0l0,-12.75l-26.53,0l0,-40.3l40.3,0l0,26.53l12.77,0l-0.01,-26.53" id="path204"/>
    <path fill="#b8b7c2" fill-rule="nonzero" d="m3332.596564,7937.190415l40.3,0l0,40.3l-26.52,0l0,12.75l26.52,0l0,40.31l-40.3,0l0,-26.53l-12.75,0l0,26.53l-40.31,0l0,-40.31l26.54,0l-0.01,-12.75l-26.53,0l0,-40.3l40.31,0l0,26.53l12.75,0l0,-26.53" id="path206"/>
    <path fill="#b8b7c2" fill-rule="nonzero" d="m3679.656564,7590.130415l40.3,0l0,40.31l-26.52,-0.01l0,12.75l26.52,0l0,40.31l-40.3,0l0,-26.53l-12.75,0l0,26.53l-40.31,0l0,-40.31l26.54,0l-0.01,-12.74l-26.53,0l0,-40.31l40.31,0l0,26.53l12.75,0l0,-26.53" id="path208"/>
    <path fill="#b8b7c2" fill-rule="nonzero" d="m4027.426564,7242.360415l40.33,-0.01l0,40.31l-26.56,0l0,12.76l26.56,0l0,40.3l-40.33,0l0,-26.53l-12.75,0l0,26.53l-40.3,0l0,-40.3l26.52,0l0,-12.76l-26.53,0l0.01,-40.31l40.3,0l0,26.54l12.75,0l0,-26.53" id="path210"/>
    <path fill="#b8b7c2" fill-rule="nonzero" d="m4376.656564,6893.160415l40.3,0l0,40.31l-26.6,0l0,12.75l26.6,0l0,40.3l-40.3,0.01l0,-26.53l-12.8,0l0,26.52l-40.3,0l0,-40.3l26.5,0l0,-12.75l-26.5,0l0,-40.31l40.3,0l0,26.53l12.8,0l0,-26.53" id="path212"/>
    <path fill="#b8b7c2" fill-rule="nonzero" d="m4724.356564,6545.400415l40.3,0l0,40.3l-26.5,0l0,12.75l26.5,0l0,40.31l-40.3,0l0,-26.53l-12.7,-0.01l0,26.54l-40.3,0l0,-40.31l26.5,0l0,-12.75l-26.5,0l0,-40.3l40.3,0l0,26.52l12.7,0l0,-26.52" id="path214"/>
    <path fill="#b8b7c2" fill-rule="nonzero" d="m5070.756564,6199.050415l40.3,0l0,40.3l-26.5,0l0,12.76l26.5,0l0,40.3l-40.3,0l0,-26.53l-12.8,-0.01l0,26.54l-40.3,0l0,-40.3l26.6,0l0,-12.76l-26.6,0l0,-40.3l40.3,0l0,26.52l12.8,0l0,-26.52" id="path216"/>
    <path fill="#b8b7c2" fill-rule="nonzero" d="m5418.456564,5851.280415l40.4,0l0,40.3l-26.6,0l0,12.75l26.6,0l0,40.3l-40.4,0l0,-26.52l-12.7,0l0,26.52l-40.3,0l0,-40.3l26.5,0l0,-12.75l-26.5,0l0,-40.3l40.3,0l0,26.53l12.8,0l-0.1,-26.53" id="path218"/>
    <path fill="#b8b7c2" fill-rule="nonzero" d="m5767.656564,5502.090415l40.4,0l0,40.3l-26.6,0l0,12.75l26.6,0l0,40.3l-40.4,0l0,-26.52l-12.7,-0.01l0,26.53l-40.3,0l0,-40.3l26.5,0l0,-12.75l-26.5,0l0,-40.3l40.3,0l0,26.52l12.7,0l0,-26.52" id="path220"/>
    <path fill="#b8b7c2" fill-rule="nonzero" d="m6115.456564,5154.310415l40.3,0l0,40.3l-26.5,0l0,12.76l26.5,0l0,40.3l-40.3,0.01l0,-26.53l-12.7,0l0,26.52l-40.3,0l0,-40.3l26.5,0l0,-12.76l-26.5,0l0,-40.3l40.3,0l0,26.54l12.7,0l0,-26.54" id="path222"/>
    <path fill="#b8b7c2" fill-rule="nonzero" d="m6463.956564,4805.840415l40.3,-0.01l0,40.31l-26.5,0l0,12.75l26.5,0l0,40.3l-40.3,0l0,-26.53l-12.8,0l0,26.53l-40.3,0l0,-40.3l26.6,0l0,-12.75l-26.6,0l0,-40.31l40.3,0l0,26.53l12.8,0l0,-26.52" id="path224"/>
    <path fill="#b8b7c2" fill-rule="nonzero" d="m1942.936564,8637.000415l40.3,-0.01l0,40.31l-26.52,0l0,12.75l26.52,0l0,40.31l-40.3,0l0,-26.53l-12.75,-0.01l0,26.54l-40.3,0l0,-40.31l26.52,0l0,-12.75l-26.52,0l0,-40.31l40.3,0l0,26.53l12.75,0l0,-26.52" id="path226"/>
    <path fill="#b8b7c2" fill-rule="nonzero" d="m2290.716564,8289.220415l40.3,0l0,40.31l-26.54,0l0,12.75l26.54,0l0,40.3l-40.3,0.01l0,-26.53l-12.76,0l0,26.52l-40.3,0l0,-40.3l26.52,0l0,-12.75l-26.53,0l0.01,-40.31l40.3,0l0,26.53l12.76,0l0,-26.53" id="path228"/>
    <path fill="#b8b7c2" fill-rule="nonzero" d="m2639.896564,7940.030415l40.31,0l0,40.31l-26.53,-0.01l0,12.76l26.53,0l0,40.3l-40.31,0l0,-26.52l-12.75,-0.01l0,26.53l-40.3,0l0,-40.3l26.52,0l0,-12.75l-26.52,0l0,-40.31l40.3,0l0,26.53l12.75,0l0,-26.53" id="path230"/>
    <path fill="#b8b7c2" fill-rule="nonzero" d="m2987.666564,7592.260415l40.31,0l0,40.3l-26.53,0l0,12.76l26.53,0l0,40.3l-40.31,0.01l0,-26.53l-12.75,-0.01l0,26.53l-40.3,0l0,-40.3l26.52,0l0,-12.76l-26.53,0l0.01,-40.3l40.3,0l0,26.53l12.76,0l-0.01,-26.53" id="path232"/>
    <path fill="#b8b7c2" fill-rule="nonzero" d="m3334.726564,7245.200415l40.31,0l-0.01,40.31l-26.52,-0.01l0,12.76l26.53,0l0,40.3l-40.31,0.01l0,-26.53l-12.75,-0.01l0,26.53l-40.31,0l0,-40.3l26.54,0l0,-12.75l-26.54,0l0,-40.31l40.31,0l0,26.53l12.76,0l-0.01,-26.53" id="path234"/>
    <path fill="#b8b7c2" fill-rule="nonzero" d="m3682.496564,6897.430415l40.31,0l0,40.31l-26.53,0l0,12.75l26.53,0l0,40.3l-40.31,0l0,-26.53l-12.75,0l0,26.53l-40.3,0l0,-40.3l26.53,0l-0.01,-12.75l-26.52,0l0,-40.31l40.3,0l0,26.53l12.75,0l0,-26.53" id="path236"/>
    <path fill="#b8b7c2" fill-rule="nonzero" d="m4031.686564,6548.240415l40.27,0l0,40.3l-26.5,0l0,12.75l26.5,0l0,40.31l-40.27,0l0,-26.53l-12.74,0l0,26.53l-40.31,0l0,-40.31l26.53,0l0,-12.75l-26.53,0l0,-40.3l40.31,0l0,26.53l12.75,0l-0.01,-26.53" id="path238"/>
    <path fill="#b8b7c2" fill-rule="nonzero" d="m4379.456564,6200.470415l40.3,-0.01l0,40.32l-26.5,-0.01l0,12.75l26.5,0l0,40.3l-40.3,0.01l0,-26.53l-12.7,0l0,26.52l-40.4,0l0,-40.3l26.6,0l0,-12.74l-26.6,0l0,-40.32l40.4,0l0,26.54l12.7,0l0,-26.53" id="path240"/>
    <path fill="#b8b7c2" fill-rule="nonzero" d="m4725.856564,5854.120415l40.3,0l0,40.3l-26.6,0l0,12.75l26.6,0l0,40.31l-40.3,0.01l0,-26.54l-12.8,0l0,26.53l-40.3,0l0,-40.31l26.5,0l0,-12.75l-26.5,0l0,-40.3l40.3,0l0,26.53l12.8,0l0,-26.53" id="path242"/>
    <path fill="#b8b7c2" fill-rule="nonzero" d="m5073.556564,5506.350415l40.3,-0.01l0,40.32l-26.5,0l0,12.75l26.5,0l0,40.3l-40.3,0l0,-26.53l-12.7,0l0,26.53l-40.3,0l0,-40.3l26.5,0l0,-12.75l-26.5,0l0,-40.32l40.3,0l0,26.54l12.7,0l0,-26.53" id="path244"/>
    <path fill="#b8b7c2" fill-rule="nonzero" d="m5422.756564,5157.150415l40.3,0l0,40.31l-26.5,0l0,12.75l26.5,0l0,40.3l-40.3,0.01l0,-26.53l-12.7,0l0,26.52l-40.3,0l0,-40.3l26.5,0l0,-12.75l-26.5,0l0,-40.31l40.3,0l0,26.54l12.7,0l0,-26.54" id="path246"/>
    <path fill="#b8b7c2" fill-rule="nonzero" d="m5770.556564,4809.390415l40.3,-0.01l0,40.31l-26.5,0l0,12.76l26.5,0l0,40.3l-40.3,0l0,-26.53l-12.8,0l0,26.53l-40.3,0l0,-40.3l26.6,0l0,-12.76l-26.6,0l0,-40.31l40.3,0l0,26.53l12.8,0l0,-26.52" id="path248"/>
    <path fill="#b8b7c2" fill-rule="nonzero" d="m6119.056564,4460.900415l40.3,0l0,40.31l-26.6,0l0,12.75l26.6,0l0,40.3l-40.3,0l0,-26.52l-12.8,0l0,26.52l-40.3,0l0,-40.3l26.5,0l0,-12.75l-26.5,0l0,-40.31l40.3,0l0,26.54l12.8,0l0,-26.54" id="path250"/>
    <path fill="#b8b7c2" fill-rule="nonzero" d="m1592.326564,8286.380415l40.3,0l0,40.31l-26.52,-0.01l0,12.76l26.52,0l0,40.3l-40.3,0l0,-26.53l-12.76,0l0,26.53l-40.3,0l0,-40.3l26.53,0l-0.01,-12.75l-26.52,0l0,-40.31l40.3,0l0,26.53l12.76,0l0,-26.53" id="path252"/>
    <path fill="#b8b7c2" fill-rule="nonzero" d="m1940.096564,7938.610415l40.3,0l0,40.31l-26.53,-0.01l0,12.76l26.53,0l0,40.3l-40.3,0l0,-26.53l-12.75,0l0,26.53l-40.31,0l0,-40.3l26.53,0l0,-12.75l-26.54,0l0.01,-40.31l40.31,0l0,26.53l12.75,0l0,-26.53" id="path254"/>
    <path fill="#b8b7c2" fill-rule="nonzero" d="m2289.286564,7589.420415l40.3,-0.01l0,40.31l-26.52,0l0,12.76l26.52,0l0,40.3l-40.3,0l0,-26.53l-12.75,0l0,26.53l-40.31,0l0,-40.3l26.54,0l-0.01,-12.76l-26.53,0l0,-40.31l40.31,0l0,26.53l12.75,0l0,-26.52" id="path256"/>
    <path fill="#b8b7c2" fill-rule="nonzero" d="m2637.056564,7241.650415l40.31,0l0,40.3l-26.54,0l0,12.75l26.54,0l0,40.31l-40.31,0l0,-26.53l-12.75,0l0,26.53l-40.3,0l0,-40.31l26.52,0l0,-12.75l-26.53,0l0.01,-40.3l40.3,0l0,26.52l12.75,0l0,-26.52" id="path258"/>
    <path fill="#b8b7c2" fill-rule="nonzero" d="m2984.116564,6894.590415l40.31,0l0,40.3l-26.54,0l0,12.75l26.54,0l0,40.31l-40.31,0l0,-26.53l-12.75,0l0,26.53l-40.3,0l0,-40.31l26.52,0l0,-12.75l-26.53,0l0.01,-40.3l40.3,0l0,26.52l12.75,0l0,-26.52" id="path260"/>
    <path fill="#b8b7c2" fill-rule="nonzero" d="m3331.886564,6546.820415l40.31,-0.01l-0.01,40.31l-26.52,-0.01l0,12.77l26.53,0l0,40.3l-40.31,0l0,-26.53l-12.76,0l0,26.53l-40.3,0l0,-40.3l26.53,0l0,-12.76l-26.53,0l0,-40.31l40.3,0l0,26.54l12.76,0l0,-26.53" id="path262"/>
    <path fill="#b8b7c2" fill-rule="nonzero" d="m3681.086564,6197.620415l40.3,0l0,40.31l-26.53,0l0,12.75l26.53,0l0,40.3l-40.3,0.01l0,-26.53l-12.76,0l0,26.52l-40.3,0l0,-40.3l26.52,0l0,-12.75l-26.53,0l0.01,-40.31l40.3,0l0,26.54l12.76,0l0,-26.54" id="path264"/>
    <path fill="#b8b7c2" fill-rule="nonzero" d="m4028.846564,5849.860415l40.31,-0.01l0,40.31l-26.53,-0.01l0,12.77l26.53,0l0,40.3l-40.31,0l0,-26.53l-12.75,0l0,26.53l-40.31,0l0,-40.3l26.54,0l0,-12.76l-26.54,0l0,-40.31l40.31,0l0,26.53l12.75,0l0,-26.52" id="path266"/>
    <path fill="#b8b7c2" fill-rule="nonzero" d="m4375.156564,5503.510415l40.4,-0.01l-0.1,40.31l-26.5,-0.01l0,12.76l26.6,0l0,40.31l-40.4,0l0,-26.53l-12.7,0l0,26.53l-40.3,0l0,-40.31l26.5,0l0,-12.75l-26.5,0l0,-40.31l40.3,0l0,26.53l12.7,0l0,-26.52" id="path268"/>
    <path fill="#b8b7c2" fill-rule="nonzero" d="m4722.956564,5155.740415l40.3,0l0,40.3l-26.5,0l0,12.75l26.5,0l0,40.31l-40.3,0l0,-26.54l-12.7,0l0,26.54l-40.3,0l0,-40.31l26.5,0l0,-12.75l-26.5,0l0,-40.3l40.3,0l0,26.52l12.7,0l0,-26.52" id="path270"/>
    <path fill="#b8b7c2" fill-rule="nonzero" d="m5072.156564,4806.550415l40.3,-0.01l0,40.31l-26.5,-0.01l0,12.76l26.5,0l0,40.31l-40.3,0l0,-26.54l-12.8,0l0,26.54l-40.3,0l0,-40.31l26.6,0l0,-12.75l-26.6,0l0,-40.31l40.3,0l0,26.53l12.8,0l0,-26.52" id="path272"/>
    <path fill="#b8b7c2" fill-rule="nonzero" d="m5419.956564,4458.780415l40.3,0l0,40.3l-26.5,0l0,12.75l26.5,0l0,40.3l-40.3,0l0,-26.52l-12.8,-0.01l0,26.53l-40.3,0l0,-40.3l26.6,0l-0.1,-12.75l-26.5,0l0,-40.3l40.3,0l0,26.52l12.8,0l0,-26.52" id="path274"/>
    <path fill="#b8b7c2" fill-rule="nonzero" d="m5768.456564,4110.290415l40.3,0l0,40.3l-26.6,0l0,12.76l26.6,0l0,40.3l-40.3,0.01l0,-26.54l-12.8,0l0,26.53l-40.3,0l0,-40.3l26.5,0l0,-12.76l-26.5,0l0,-40.3l40.3,0l0,26.53l12.8,0l0,-26.53" id="path276"/>
    <path fill="#b8b7c2" fill-rule="nonzero" d="m1247.386564,7941.460415l40.32,-0.01l-0.01,40.31l-26.53,-0.01l0,12.76l26.54,0l0,40.31l-40.32,0l0,-26.53l-12.74,0l0,26.53l-40.3,0l0,-40.31l26.52,0l0,-12.75l-26.53,0l0.01,-40.31l40.3,0l0,26.53l12.75,0l-0.01,-26.52" id="path278"/>
    <path fill="#b8b7c2" fill-rule="nonzero" d="m1595.166564,7593.680415l40.3,0l0,40.31l-26.52,0l0,12.75l26.52,0l0,40.3l-40.3,0.01l0,-26.53l-12.76,-0.01l0,26.53l-40.3,0l0,-40.3l26.53,0l0,-12.75l-26.53,0l0,-40.31l40.3,0l0,26.53l12.76,0l0,-26.53" id="path280"/>
    <path fill="#b8b7c2" fill-rule="nonzero" d="m1944.356564,7244.490415l40.31,0l-0.01,40.31l-26.52,-0.01l0,12.76l26.53,0l0,40.3l-40.31,0l0,-26.53l-12.75,0l0,26.53l-40.31,0l0,-40.3l26.53,0l0,-12.75l-26.53,0l0,-40.31l40.31,0l0,26.53l12.76,0l-0.01,-26.53" id="path282"/>
    <path fill="#b8b7c2" fill-rule="nonzero" d="m2292.126564,6896.720415l40.3,0l0,40.31l-26.52,-0.01l0,12.76l26.52,0l0,40.3l-40.3,0l0,-26.52l-12.75,-0.01l0,26.53l-40.31,0l0,-40.3l26.54,0l-0.01,-12.75l-26.53,0l0,-40.31l40.31,0l0,26.53l12.75,0l0,-26.53" id="path284"/>
    <path fill="#b8b7c2" fill-rule="nonzero" d="m2639.186564,6549.660415l40.3,0l0,40.31l-26.52,0l0,12.75l26.52,0l0,40.3l-40.3,0l0,-26.53l-12.75,0l0,26.53l-40.3,0l0,-40.3l26.53,0l-0.01,-12.75l-26.52,0l0,-40.31l40.3,0l0,26.53l12.75,0l0,-26.53" id="path286"/>
    <path fill="#b8b7c2" fill-rule="nonzero" d="m2986.966564,6201.890415l40.3,0l0,40.3l-26.54,0l0,12.76l26.54,0l0,40.3l-40.3,0l0,-26.52l-12.76,-0.01l0,26.53l-40.3,0l0,-40.3l26.52,0l0,-12.76l-26.52,0l0,-40.3l40.3,0l0,26.52l12.76,0l0,-26.52" id="path288"/>
    <path fill="#b8b7c2" fill-rule="nonzero" d="m3336.146564,5852.700415l40.31,0l0,40.3l-26.53,0l0,12.76l26.53,0l0,40.3l-40.31,0l0,-26.53l-12.75,0l0,26.53l-40.3,0l0,-40.3l26.53,0l-0.01,-12.76l-26.52,0l0,-40.3l40.3,0l0,26.52l12.75,0l0,-26.52" id="path290"/>
    <path fill="#b8b7c2" fill-rule="nonzero" d="m3683.926564,5504.930415l40.3,0l0,40.3l-26.53,0l0,12.75l26.53,0l0,40.31l-40.3,0l0,-26.53l-12.76,0l0,26.53l-40.3,0l0,-40.31l26.52,0l0,-12.75l-26.53,0l0.01,-40.3l40.3,0l0,26.52l12.76,0l0,-26.52" id="path292"/>
    <path fill="#b8b7c2" fill-rule="nonzero" d="m4030.276564,5158.580415l40.28,0l0,40.3l-26.5,0l0,12.76l26.5,0l0,40.3l-40.28,0l0,-26.52l-12.76,-0.01l0,26.53l-40.3,0l0,-40.3l26.52,0l0,-12.76l-26.52,0l0,-40.3l40.3,0l0,26.52l12.76,0l0,-26.52" id="path294"/>
    <path fill="#b8b7c2" fill-rule="nonzero" d="m4378.056564,4810.810415l40.3,0l0,40.3l-26.5,0l0,12.75l26.5,0l0,40.31l-40.3,0.01l0,-26.54l-12.8,0l0,26.53l-40.3,0l0,-40.31l26.6,0l0,-12.75l-26.6,0l0,-40.3l40.3,0l0,26.53l12.8,0l0,-26.53" id="path296"/>
    <path fill="#b8b7c2" fill-rule="nonzero" d="m4727.256564,4461.620415l40.3,0l0,40.3l-26.5,0l0,12.75l26.5,0l0,40.31l-40.3,0l0,-26.53l-12.8,-0.01l0,26.54l-40.3,0l0,-40.31l26.5,0l0,-12.75l-26.5,0l0,-40.3l40.3,0l0,26.52l12.8,0l0,-26.52" id="path298"/>
    <path fill="#b8b7c2" fill-rule="nonzero" d="m5074.956564,4113.840415l40.4,0l0,40.31l-26.6,0l0,12.75l26.6,0l0,40.3l-40.4,0.01l0,-26.53l-12.7,0l0,26.52l-40.3,0l0,-40.3l26.5,0l0,-12.75l-26.5,0l0,-40.31l40.3,0l0,26.54l12.8,0l-0.1,-26.54" id="path300"/>
    <path fill="#b8b7c2" fill-rule="nonzero" d="m5423.456564,3765.370415l40.3,0l0,40.3l-26.5,0l0,12.75l26.5,0l0,40.31l-40.3,0l0,-26.53l-12.7,-0.01l0,26.54l-40.3,0l0,-40.31l26.5,0l0,-12.75l-26.5,0l0,-40.3l40.3,0l0,26.52l12.7,0l0,-26.52" id="path302"/>
    <path fill="#b8b7c2" fill-rule="nonzero" d="m896.786564,7590.840415l40.3,0l0,40.3l-26.53,0l0,12.76l26.53,0l0,40.3l-40.3,0l0,-26.53l-12.75,0l0,26.53l-40.31,0l0,-40.3l26.53,0l0,-12.76l-26.54,0l0.01,-40.3l40.31,0l0,26.53l12.75,0l0,-26.53" id="path304"/>
    <path fill="#b8b7c2" fill-rule="nonzero" d="m1244.546564,7243.070415l40.32,0l-0.01,40.3l-26.53,0l0,12.75l26.54,0l0,40.31l-40.32,0l0,-26.53l-12.75,0l0,26.53l-40.3,0l0,-40.31l26.53,0l0,-12.75l-26.53,0l0,-40.3l40.3,0l0,26.53l12.76,0l-0.01,-26.53" id="path306"/>
    <path fill="#b8b7c2" fill-rule="nonzero" d="m1593.746564,6893.880415l40.31,0l0,40.3l-26.54,0l0,12.75l26.54,0l0,40.31l-40.31,0l0,-26.53l-12.75,0l0,26.53l-40.3,0l0,-40.31l26.52,0l0,-12.75l-26.53,0l0.01,-40.3l40.3,0l0,26.53l12.75,0l0,-26.53" id="path308"/>
    <path fill="#b8b7c2" fill-rule="nonzero" d="m1941.516564,6546.110415l40.31,0l-0.01,40.3l-26.52,0l0,12.76l26.53,0l0,40.3l-40.31,0l0,-26.53l-12.76,0l0,26.53l-40.3,0l0,-40.3l26.53,0l0,-12.76l-26.53,0l0,-40.3l40.3,0l0,26.52l12.76,0l0,-26.52" id="path310"/>
    <path fill="#b8b7c2" fill-rule="nonzero" d="m2288.576564,6199.050415l40.3,0l0,40.3l-26.52,0l0,12.76l26.52,0l0,40.3l-40.3,0l0,-26.53l-12.76,-0.01l0,26.54l-40.3,0l0,-40.3l26.53,0l0,-12.76l-26.53,0l0,-40.3l40.3,0l0,26.52l12.76,0l0,-26.52" id="path312"/>
    <path fill="#b8b7c2" fill-rule="nonzero" d="m2636.346564,5851.280415l40.3,0l0,40.3l-26.52,0l0,12.75l26.52,0l0,40.3l-40.3,0l0,-26.52l-12.75,0l0,26.52l-40.31,0l0,-40.3l26.54,0l-0.01,-12.75l-26.53,0l0,-40.3l40.31,0l0,26.53l12.75,0l0,-26.53" id="path314"/>
    <path fill="#b8b7c2" fill-rule="nonzero" d="m2985.536564,5502.090415l40.3,0l0,40.3l-26.52,0l0,12.75l26.52,0l0,40.3l-40.3,0l0,-26.52l-12.75,-0.01l0,26.53l-40.31,0l0,-40.3l26.54,0l0,-12.75l-26.54,0l0,-40.3l40.31,0l0,26.52l12.75,0l0,-26.52" id="path316"/>
    <path fill="#b8b7c2" fill-rule="nonzero" d="m3333.306564,5154.310415l40.31,0l0,40.3l-26.53,0l0,12.76l26.53,0l0,40.3l-40.31,0.01l0,-26.53l-12.75,0l0,26.52l-40.3,0l0,-40.3l26.52,0l0,-12.76l-26.52,0l0,-40.3l40.3,0l0,26.54l12.75,0l0,-26.54" id="path318"/>
    <path fill="#b8b7c2" fill-rule="nonzero" d="m3679.656564,4807.960415l40.3,0l0,40.31l-26.52,0l0,12.75l26.52,0l0,40.3l-40.3,0l0,-26.52l-12.75,0l0,26.52l-40.31,0l0,-40.3l26.54,0l-0.01,-12.75l-26.53,0l0,-40.31l40.31,0l0,26.53l12.75,0l0,-26.53" id="path320"/>
    <path fill="#b8b7c2" fill-rule="nonzero" d="m4027.426564,4460.190415l40.33,0l0,40.31l-26.56,-0.01l0,12.76l26.56,0l0,40.3l-40.33,0.01l0,-26.53l-12.75,0l0,26.52l-40.3,0l0,-40.3l26.52,0l0,-12.75l-26.53,0l0.01,-40.31l40.3,0l0,26.53l12.75,0l0,-26.53" id="path322"/>
    <path fill="#b8b7c2" fill-rule="nonzero" d="m4376.656564,4111.000415l40.3,0l0,40.3l-26.6,0l0,12.76l26.6,0l0,40.3l-40.3,0l0,-26.52l-12.8,0l0,26.52l-40.3,0l0,-40.3l26.5,0l0,-12.76l-26.5,0l0,-40.3l40.3,0l0,26.53l12.8,0l0,-26.53" id="path324"/>
    <path fill="#b8b7c2" fill-rule="nonzero" d="m4724.356564,3763.230415l40.3,0l0,40.31l-26.5,-0.01l0,12.75l26.5,0l0,40.31l-40.3,0.01l0,-26.54l-12.7,0l0,26.53l-40.3,0l0,-40.31l26.5,0l0,-12.74l-26.5,0l0,-40.31l40.3,0l0,26.53l12.7,0l0,-26.53" id="path326"/>
    <path fill="#b8b7c2" fill-rule="nonzero" d="m5072.856564,3414.750415l40.3,0l0,40.3l-26.5,0l0,12.76l26.5,0l0,40.3l-40.3,0l0,-26.52l-12.7,-0.01l0,26.53l-40.3,0l0,-40.3l26.5,0l0,-12.76l-26.5,0l0,-40.3l40.3,0l0,26.53l12.7,0l0,-26.53" id="path328"/>
    <path fill="#b8b7c2" fill-rule="nonzero" d="m549.016564,7243.070415l40.3,0l0,40.3l-26.52,0l0,12.75l26.52,0l0,40.31l-40.3,0l0,-26.53l-12.76,0l0,26.53l-40.3,0l0,-40.31l26.53,0l-0.01,-12.75l-26.52,0l0,-40.3l40.3,0l0,26.53l12.76,0l0,-26.53" id="path330"/>
    <path fill="#b8b7c2" fill-rule="nonzero" d="m896.786564,6895.300415l40.3,0l0,40.3l-26.53,0l0,12.76l26.53,0l0,40.3l-40.3,0l0,-26.53l-12.75,0l0,26.53l-40.31,0l0,-40.3l26.53,0l0,-12.76l-26.54,0l0.01,-40.3l40.31,0l0,26.53l12.75,0l0,-26.53" id="path332"/>
    <path fill="#b8b7c2" fill-rule="nonzero" d="m1245.976564,6546.110415l40.3,0l0,40.3l-26.52,0l0,12.76l26.52,0l0,40.3l-40.3,0l0,-26.53l-12.76,0l0,26.53l-40.3,0l0,-40.3l26.54,0l-0.01,-12.76l-26.53,0l0,-40.3l40.3,0l0,26.52l12.76,0l0,-26.52" id="path334"/>
    <path fill="#b8b7c2" fill-rule="nonzero" d="m1593.746564,6198.340415l40.31,0l0,40.3l-26.54,0l0,12.75l26.54,0l0,40.3l-40.31,0l0,-26.52l-12.75,0l0,26.52l-40.3,0l0,-40.3l26.52,0l0,-12.75l-26.53,0l0.01,-40.3l40.3,0l0,26.52l12.75,0l0,-26.52" id="path336"/>
    <path fill="#b8b7c2" fill-rule="nonzero" d="m1940.796564,5851.280415l40.32,0l0,40.3l-26.54,0l0,12.75l26.54,0l0,40.3l-40.32,0l0,-26.52l-12.74,0l0,26.52l-40.3,0l0,-40.3l26.52,0l0,-12.75l-26.53,0l0.01,-40.3l40.3,0l0,26.53l12.75,0l-0.01,-26.53" id="path338"/>
    <path fill="#b8b7c2" fill-rule="nonzero" d="m2288.576564,5503.510415l40.3,-0.01l0,40.31l-26.52,-0.01l0,12.76l26.52,0l0,40.31l-40.3,0l0,-26.53l-12.76,0l0,26.53l-40.3,0l0,-40.31l26.53,0l0,-12.75l-26.53,0l0,-40.31l40.3,0l0,26.53l12.76,0l0,-26.52" id="path340"/>
    <path fill="#b8b7c2" fill-rule="nonzero" d="m2637.766564,5154.310415l40.31,0l-0.01,40.3l-26.52,0l0,12.76l26.53,0l0,40.3l-40.31,0.01l0,-26.53l-12.75,0l0,26.52l-40.31,0l0,-40.3l26.53,0l0,-12.76l-26.53,0l0,-40.3l40.31,0l0,26.54l12.76,0l-0.01,-26.54" id="path342"/>
    <path fill="#b8b7c2" fill-rule="nonzero" d="m2985.536564,4806.550415l40.3,-0.01l0,40.31l-26.52,-0.01l0,12.76l26.52,0l0,40.31l-40.3,0l0,-26.54l-12.75,0l0,26.54l-40.31,0l0,-40.31l26.54,0l0,-12.75l-26.54,0l0,-40.31l40.31,0l0,26.53l12.75,0l0,-26.52" id="path344"/>
    <path fill="#b8b7c2" fill-rule="nonzero" d="m3331.886564,4460.190415l40.31,0l-0.01,40.31l-26.52,-0.01l0,12.76l26.53,0l0,40.3l-40.31,0.01l0,-26.53l-12.76,0l0,26.52l-40.3,0l0,-40.3l26.53,0l0,-12.75l-26.53,0l0,-40.31l40.3,0l0,26.53l12.76,0l0,-26.53" id="path346"/>
    <path fill="#b8b7c2" fill-rule="nonzero" d="m3679.656564,4112.430415l40.3,-0.01l0,40.31l-26.52,0l0,12.75l26.52,0l0,40.31l-40.3,0l0,-26.54l-12.75,0l0,26.54l-40.31,0l0,-40.31l26.54,0l-0.01,-12.75l-26.53,0l0,-40.31l40.31,0l0,26.53l12.75,0l0,-26.52" id="path348"/>
    <path fill="#b8b7c2" fill-rule="nonzero" d="m4028.846564,3763.230415l40.31,0l0,40.31l-26.53,-0.01l0,12.75l26.53,0l0,40.31l-40.31,0.01l0,-26.54l-12.75,0l0,26.53l-40.31,0l0,-40.31l26.54,0l0,-12.74l-26.54,0l0,-40.31l40.31,0l0,26.53l12.75,0l0,-26.53" id="path350"/>
    <path fill="#b8b7c2" fill-rule="nonzero" d="m4376.656564,3415.460415l40.3,-0.01l0,40.32l-26.6,0l0,12.75l26.6,0l0,40.3l-40.3,0l0,-26.53l-12.8,0l0,26.53l-40.3,0l0,-40.3l26.5,0l0,-12.75l-26.5,0l0,-40.32l40.3,0l0,26.54l12.8,0l0,-26.53" id="path352"/>
    <path fill="#b8b7c2" fill-rule="nonzero" d="m4725.056564,3066.980415l40.4,0l-0.1,40.3l-26.5,0l0,12.75l26.6,0l0,40.31l-40.4,0.01l0,-26.54l-12.7,0l0,26.53l-40.3,0l0,-40.31l26.5,0l0,-12.75l-26.5,0l0,-40.3l40.3,0l0,26.53l12.7,0l0,-26.53" id="path354"/>
    <path fill="#cfced4" fill-rule="nonzero" d="m4338.956564,3285.360415l-1708.24,0c-111.94,0 -202.68,90.74 -202.68,202.68l0,0c0,111.94 90.74,202.68 202.68,202.68l1708.24,0c111.9,0 202.7,-90.74 202.7,-202.68l0,0c0,-111.94 -90.8,-202.68 -202.7,-202.68" id="path356"/>
    <path fill="#a84967" fill-rule="nonzero" d="m3313.736564,8810.470415c0,229.34 143.61,424.67 345.6,502.34c-59.99,23.06 -124.88,36.23 -193,36.23c-297.44,0 -538.57,-241.13 -538.57,-538.57c0,-297.45 241.13,-538.57 538.57,-538.57c68.12,0 133.01,13.15 193,36.22c-201.99,77.67 -345.6,273.01 -345.6,502.35" id="path358"/>
    <path fill="#a84967" fill-rule="nonzero" d="m3466.336564,9349.040415l-538.57,0l0,0c0,-119.64 96.99,-216.64 216.64,-216.64l321.93,0l0,216.64" id="path360"/>
    <path fill="#9d3555" fill-rule="nonzero" d="m4004.906564,8810.470415c0,229.34 -143.59,424.67 -345.57,502.34c-201.99,-77.67 -345.6,-273 -345.6,-502.34c0,-229.34 143.61,-424.68 345.6,-502.35c201.98,77.67 345.57,273.01 345.57,502.35" id="path362"/>
    <path fill="#403f5d" fill-rule="nonzero" d="m3485.736564,3705.790415c0,-143.46 -139.65,-259.75 -311.93,-259.75c-172.27,0 -311.93,116.29 -311.93,259.75c0,143.44 139.66,259.73 311.93,259.73c172.28,0 311.93,-116.29 311.93,-259.73" id="path364"/>
    <path fill="#403f5d" fill-rule="nonzero" d="m4090.156564,3705.790415c0,-143.46 -139.61,-259.75 -311.89,-259.75c-172.27,0 -311.93,116.29 -311.93,259.75c0,143.44 139.66,259.73 311.93,259.73c172.28,0 311.89,-116.29 311.89,-259.73" id="path366"/>
    <path fill="#53516e" fill-rule="nonzero" d="m3485.736564,3841.490415c0,-143.45 -139.65,-259.74 -311.93,-259.74c-172.27,0 -311.93,116.29 -311.93,259.74c0,143.46 139.66,259.75 311.93,259.75c172.28,0 311.93,-116.29 311.93,-259.75" id="path368"/>
    <path fill="#53516e" fill-rule="nonzero" d="m4090.156564,3841.490415c0,-143.45 -139.61,-259.74 -311.89,-259.74c-172.27,0 -311.93,116.29 -311.93,259.74c0,143.46 139.66,259.75 311.93,259.75c172.28,0 311.89,-116.29 311.89,-259.75" id="path370"/>
    <path fill="#42488c" fill-rule="nonzero" d="m2850.766564,3753.990415l1239.39,0l0,2902.08l-1239.39,0l0,-2902.08" id="path372"/>
    <path fill="#65657f" fill-rule="nonzero" d="m2868.606564,5643.620415c0,-114.23 -92.6,-206.83 -206.82,-206.83c-114.23,0 -206.83,92.6 -206.83,206.83c0,114.22 92.6,206.82 206.83,206.82c114.22,0 206.82,-92.6 206.82,-206.82" id="path374"/>
    <path fill="#65657f" fill-rule="nonzero" d="m4485.956564,5643.620415c0,-114.23 -92.6,-206.83 -206.8,-206.83c-114.2,0 -206.8,92.6 -206.8,206.83c0,114.22 92.6,206.82 206.8,206.82c114.2,0 206.8,-92.6 206.8,-206.82" id="path376"/>
    <path fill="#565897" fill-rule="nonzero" d="m3364.286564,6656.070415l0,-2902.08l102.05,0l0,2902.08l-102.05,0" id="path378"/>
    <path fill="#53516e" fill-rule="nonzero" d="m3309.516564,7842.600415l0,-167.97c-42.29,-7.42 -83.78,-17.18 -124.14,-29.59l124.14,-124.12l160.97,-160.98l160.97,160.98l132.53,132.51c-43.13,11.85 -87.36,20.96 -132.53,27.17l0,161.77" id="path380"/>
    <path fill="#23558d" fill-rule="nonzero" d="m3793.506564,7645.040415l0,-1.04c0.34,-0.1 0.67,-0.22 1.01,-0.33l-1.01,1.37" id="path382"/>
    <path fill="#a3a1c3" fill-rule="nonzero" d="m3784.196564,5921.800415l-627.43,0l0,2013.85l627.43,0l0,-2013.85" id="path384"/>
    <path fill="#403f5d" fill-rule="nonzero" d="m3468.246564,7593.390415l163.21,249.2l-326.41,0l163.2,-249.2z" id="path386"/>
    <path fill="#403f5d" fill-rule="nonzero" d="m3631.456564,6395.090415l-0.3,0l-162.91,1447.5l-162.91,-1447.5l-0.29,0l163.2,-160.97l163.21,160.97" id="path388"/>
    <path fill="#7a7aad" fill-rule="nonzero" d="m3170.076564,7935.650415l-406.31,-284.56c-190.81,-133.63 -308.81,-384.33 -308.81,-656.07l0,-1341.23l346.16,0l0,0c0,-154.96 101.3,-280.58 226.27,-280.58l142.69,0l0,2562.44" id="path390"/>
    <path fill="#565897" fill-rule="nonzero" d="m3763.966564,7935.650415l410.19,-284.56c192.7,-133.64 311.8,-384.33 311.8,-656.07l0,-1341.23l-349.5,0l0,0c0,-154.97 -102.25,-280.59 -228.43,-280.59l-144.06,0l0,2562.45" id="path392"/>
    <path fill="#b8b7d1" fill-rule="nonzero" d="m3468.246564,7842.590415l-117.09,-180.76l-181.08,247.26l298.17,-66.5z" id="path394"/>
    <path fill="#b8b7d1" fill-rule="nonzero" d="m3468.246564,7842.590415l117.09,-180.76l181.09,247.26l-298.18,-66.5z" id="path396"/>
    <path fill="#78778f" fill-rule="nonzero" d="m3470.486564,9209.660415l0,0c-273.61,0 -495.43,-221.81 -495.43,-495.43l0,-411.38c0,-273.62 221.82,-495.42 495.43,-495.42l0,0c273.61,0 495.42,221.8 495.42,495.42l0,411.38c0,273.62 -221.81,495.43 -495.42,495.43" id="path398"/>
    <path fill="#78778f" fill-rule="nonzero" d="m3086.066564,8508.550415c0,-61.31 -49.7,-111.01 -111.01,-111.01c-61.3,0 -111,49.7 -111,111.01c0,61.3 49.7,111 111,111c61.31,0 111.01,-49.7 111.01,-111" id="path400"/>
    <path fill="#65657f" fill-rule="nonzero" d="m4076.956564,8508.550415c0,-61.31 -49.74,-111.01 -111.05,-111.01c-61.3,0 -111.01,49.7 -111.01,111.01c0,61.3 49.71,111 111.01,111c61.31,0 111.05,-49.7 111.05,-111" id="path402"/>
    <path fill="#565897" fill-rule="nonzero" d="m2582.186564,5773.080415c0,-21.26 -17.23,-38.49 -38.49,-38.49c-21.26,0 -38.49,17.23 -38.49,38.49c0,21.26 17.23,38.5 38.49,38.5c21.26,0 38.49,-17.24 38.49,-38.5" id="path404"/>
    <path fill="#7a7aad" fill-rule="nonzero" d="m4435.756564,5773.080415c0,-21.26 -17.2,-38.49 -38.5,-38.49c-21.2,0 -38.5,17.23 -38.5,38.49c0,21.26 17.3,38.5 38.5,38.5c21.3,0 38.5,-17.24 38.5,-38.5" id="path406"/>
    <path fill="#65657f" fill-rule="nonzero" d="m3965.906564,8302.860415l0,411.37c0,167.9 -83.72,316.02 -211.46,405.62c-194.34,-133.76 -321.93,-357.54 -321.93,-611.29c0,-253.78 127.59,-477.56 321.93,-611.32c127.74,89.62 211.46,237.72 211.46,405.62" id="path408"/>
    <path fill="#eae7e4" fill-rule="nonzero" d="m3470.486564,8122.150415c94.99,0 171.99,52.33 171.99,116.88l-343.98,0c0,-64.55 77,-116.88 171.99,-116.88" id="path410"/>
    <path fill="#cfced4" fill-rule="nonzero" d="m1598.686564,4192.950415l-1708.21,0c-111.94,0 -202.68,90.75 -202.68,202.69l0,0c0,111.93 90.74,202.68 202.68,202.68l1708.21,0c111.95,0 202.69,-90.75 202.69,-202.68l0,0c0,-111.94 -90.74,-202.69 -202.69,-202.69" id="path412"/>
    <path fill="#8e8c9f" fill-rule="nonzero" d="m123.746564,6541.490415c0,-114.23 -92.6,-206.83 -206.82,-206.83c-114.22,0 -206.82,92.6 -206.82,206.83c0,114.23 92.6,206.83 206.82,206.83c114.22,0 206.82,-92.6 206.82,-206.83" id="path414"/>
    <path fill="#8e8c9f" fill-rule="nonzero" d="m1772.286564,6541.490415c0,-114.23 -92.6,-206.83 -206.82,-206.83c-114.23,0 -206.83,92.6 -206.83,206.83c0,114.23 92.6,206.83 206.83,206.83c114.22,0 206.82,-92.6 206.82,-206.83" id="path416"/>
    <path fill="#403f5d" fill-rule="nonzero" d="m751.476564,4603.660415c0,-143.45 -100.76,-259.74 -225.03,-259.74c-124.29,0 -225.04,116.29 -225.04,259.74c0,143.45 100.75,259.74 225.04,259.74c124.27,0 225.03,-116.29 225.03,-259.74" id="path418"/>
    <path fill="#403f5d" fill-rule="nonzero" d="m1187.536564,4603.660415c0,-143.45 -100.75,-259.74 -225.03,-259.74c-124.29,0 -225.03,116.29 -225.03,259.74c0,143.45 100.74,259.74 225.03,259.74c124.28,0 225.03,-116.29 225.03,-259.74" id="path420"/>
    <path fill="#8e8c9f" fill-rule="nonzero" d="m751.476564,4739.370415c0,-143.46 -100.76,-259.75 -225.03,-259.75c-124.29,0 -225.04,116.29 -225.04,259.75c0,143.45 100.75,259.74 225.04,259.74c124.27,0 225.03,-116.29 225.03,-259.74" id="path422"/>
    <path fill="#8e8c9f" fill-rule="nonzero" d="m1187.536564,4739.370415c0,-143.46 -100.75,-259.75 -225.03,-259.75c-124.29,0 -225.03,116.29 -225.03,259.75c0,143.45 100.74,259.74 225.03,259.74c124.28,0 225.03,-116.29 225.03,-259.74" id="path424"/>
    <path fill="#42488c" fill-rule="nonzero" d="m145.166564,4651.860415l1192.08,0l0,2902.09l-1192.08,0l0,-2902.09" id="path426"/>
    <path fill="#9d3555" fill-rule="nonzero" d="m1433.206564,8181.370415l-1413.35,0l0,1290.74l1413.35,0l0,-1290.74" id="path428"/>
    <path fill="#65657f" fill-rule="nonzero" d="m1048.646564,8541.880415c-9.89,3.03 -19.51,6.68 -29.53,9.43l-132.52,-132.52l-160.96,-160.97l-160.97,160.97l-124.14,124.13l0,-146.81l0,-842.16l608.12,0l0,842.16l0,145.77" id="path430"/>
    <path fill="#7a7aad" fill-rule="nonzero" d="m-289.893436,7553.950415l0,-1012.46l175.69,0l0,0c0,-204.86 166.07,-370.94 370.93,-370.94l183.8,0l0,1383.4l0,842.16l0,146.81c-422.93,-129.87 -730.42,-523.46 -730.42,-988.97" id="path432"/>
    <path fill="#565897" fill-rule="nonzero" d="m1780.086564,7553.950415l0,-1012.46l-175.69,0l0,0c0,-204.86 -166.08,-370.94 -370.94,-370.94l-183.79,0l0,1383.4l0,842.16l0,146.81c422.92,-129.87 730.42,-523.46 730.42,-988.97" id="path434"/>
    <path fill="#23558d" fill-rule="nonzero" d="m1048.646564,8542.920415l0,-1.04c0.35,-0.11 0.68,-0.23 1.02,-0.33l-1.02,1.37" id="path436"/>
    <path fill="#a84967" fill-rule="nonzero" d="m525.156564,9424.190415c0,301.31 188.66,557.93 454.02,659.97c-78.81,30.3 -164.07,47.61 -253.54,47.61c-390.78,0 -707.58,-316.8 -707.58,-707.58c0,-390.78 316.8,-707.56 707.58,-707.56c89.47,0 174.73,17.29 253.54,47.59c-265.36,102.04 -454.02,358.67 -454.02,659.97" id="path438"/>
    <path fill="#9d3555" fill-rule="nonzero" d="m1433.206564,9424.190415c0,301.31 -188.67,557.93 -454.03,659.97c-265.36,-102.04 -454.02,-358.66 -454.02,-659.97c0,-301.3 188.66,-557.93 454.02,-659.97c265.36,102.04 454.03,358.67 454.03,659.97" id="path440"/>
    <path fill="#a2a1b0" fill-rule="nonzero" d="m1036.046564,8804.980415c-56.58,34.18 -106.99,77.48 -149.45,127.7l0,224.62l-141.3,141.31c-0.25,7.09 -0.71,14.14 -0.71,21.32c0,218.69 117.01,409.54 291.46,514.95c-90.72,54.81 -196.69,86.94 -310.41,86.94c-332.42,0 -601.89,-269.48 -601.89,-601.89c0,-276.57 186.79,-508.98 440.92,-579.46l0,-167.96c-42.3,-7.42 -83.79,-17.18 -124.14,-29.59l124.14,-124.13l160.97,-160.97l160.96,160.97l132.52,132.52c-43.11,11.85 -87.34,20.95 -132.52,27.17l0,161.77c53.1,14.89 103.27,36.83 149.45,64.73" id="path442"/>
    <path fill="#8e8c9f" fill-rule="nonzero" d="m1327.506564,9319.930415c0,218.69 -117.01,409.54 -291.46,514.95c-174.45,-105.41 -291.46,-296.26 -291.46,-514.95c0,-218.69 117.01,-409.54 291.46,-514.95c174.45,105.41 291.46,296.26 291.46,514.95" id="path444"/>
    <path fill="#eae7e4" fill-rule="nonzero" d="m725.636564,8997.980415c88.89,0 160.96,72.07 160.96,160.98l-321.93,0c0,-88.91 72.06,-160.98 160.97,-160.98" id="path446"/>
    <path fill="#403f5d" fill-rule="nonzero" d="m565.846564,8097.960415l159.78,159.79l-71.49,71.49l-159.78,-159.79l69.96,-4.42l1.53,-67.07" id="path448"/>
    <path fill="#403f5d" fill-rule="nonzero" d="m885.406564,8097.960415l-159.78,159.79l71.49,71.49l159.79,-159.79l-69.96,-4.42l-1.54,-67.07" id="path450"/>
    <path fill="#cfced4" fill-rule="nonzero" d="m7043.856564,4192.950415l-1708.3,0c-111.9,0 -202.6,90.75 -202.6,202.69l0,0c0,111.93 90.7,202.68 202.6,202.68l1708.3,0c111.9,0 202.7,-90.75 202.7,-202.68l0,0c0,-111.94 -90.8,-202.69 -202.7,-202.69" id="path452"/>
    <path fill="#403f5d" fill-rule="nonzero" d="m5561.956564,6541.490415c0,-114.23 -92.6,-206.83 -206.8,-206.83c-114.2,0 -206.8,92.6 -206.8,206.83c0,114.23 92.6,206.83 206.8,206.83c114.2,0 206.8,-92.6 206.8,-206.83" id="path454"/>
    <path fill="#403f5d" fill-rule="nonzero" d="m7210.556564,6541.490415c0,-114.23 -92.6,-206.83 -206.8,-206.83c-114.3,0 -206.9,92.6 -206.9,206.83c0,114.23 92.6,206.83 206.9,206.83c114.2,0 206.8,-92.6 206.8,-206.83" id="path456"/>
    <path fill="#53516e" fill-rule="nonzero" d="m6189.756564,4603.660415c0,-143.45 -100.8,-259.74 -225.1,-259.74c-124.2,0 -225,116.29 -225,259.74c0,143.45 100.8,259.74 225,259.74c124.3,0 225.1,-116.29 225.1,-259.74" id="path458"/>
    <path fill="#53516e" fill-rule="nonzero" d="m6625.756564,4603.660415c0,-143.45 -100.7,-259.74 -225,-259.74c-124.3,0 -225,116.29 -225,259.74c0,143.45 100.7,259.74 225,259.74c124.3,0 225,-116.29 225,-259.74" id="path460"/>
    <path fill="#403f5d" fill-rule="nonzero" d="m6189.756564,4739.370415c0,-143.46 -100.8,-259.75 -225.1,-259.75c-124.2,0 -225,116.29 -225,259.75c0,143.45 100.8,259.74 225,259.74c124.3,0 225.1,-116.29 225.1,-259.74" id="path462"/>
    <path fill="#403f5d" fill-rule="nonzero" d="m6625.756564,4739.370415c0,-143.46 -100.7,-259.75 -225,-259.75c-124.3,0 -225,116.29 -225,259.75c0,143.45 100.7,259.74 225,259.74c124.3,0 225,-116.29 225,-259.74" id="path464"/>
    <path fill="#a84967" fill-rule="nonzero" d="m5925.956564,9627.880415c0,357.62 223.9,662.21 538.9,783.32c-93.6,35.97 -194.8,56.51 -301,56.51c-463.8,0 -839.8,-376.02 -839.8,-839.83c0,-463.84 376,-839.84 839.8,-839.84c106.2,0 207.4,20.53 301,56.49c-315,121.12 -538.9,425.72 -538.9,783.35" id="path466"/>
    <path fill="#9d3555" fill-rule="nonzero" d="m7003.756564,9627.880415c0,357.62 -224,662.21 -538.9,783.32c-315,-121.11 -538.9,-425.7 -538.9,-783.32c0,-357.63 223.9,-662.23 538.9,-783.35c314.9,121.12 538.9,425.72 538.9,783.35" id="path468"/>
    <path fill="#42488c" fill-rule="nonzero" d="m6174.956564,4651.860415l457.8,0l0,2902.09l-457.8,0l0,-2902.09" id="path470"/>
    <path fill="#42488c" fill-rule="nonzero" d="m5732.856564,7553.950415l0,-2902.09l340,0l0,2902.09l-340,0" id="path472"/>
    <path fill="#565897" fill-rule="nonzero" d="m6072.856564,7553.950415l0,-2902.09l102.1,0l0,2902.09l-102.1,0" id="path474"/>
    <path fill="#53516e" fill-rule="nonzero" d="m6474.256564,8804.980415c-56.5,34.18 -107,77.48 -149.4,127.7l0,224.62l-141.3,141.31c-0.3,7.09 -0.7,14.14 -0.7,21.32c0,218.69 117,409.54 291.4,514.95c-90.7,54.81 -196.7,86.94 -310.4,86.94c-332.4,0 -601.9,-269.48 -601.9,-601.89c0,-276.57 186.8,-508.98 441,-579.46l0,-167.96c-42.3,-7.42 -83.8,-17.18 -124.2,-29.59l124.2,-124.13l160.9,-160.97l161,160.97l132.5,132.52c-43.1,11.85 -87.3,20.95 -132.5,27.17l0,161.77c53.1,14.89 103.3,36.83 149.4,64.73" id="path476"/>
    <path fill="#a3a1c3" fill-rule="nonzero" d="m6486.856564,8541.880415c-9.8,3.03 -19.5,6.68 -29.5,9.43l-132.5,-132.52l-161,-160.97l-160.9,160.97l-124.2,124.13l0,-146.81l0,-842.16l608.1,0l0,842.16l0,145.77" id="path478"/>
    <path fill="#23558d" fill-rule="nonzero" d="m6486.856564,8542.920415l0,-1.04c0.4,-0.11 0.7,-0.23 1.1,-0.33l-1.1,1.37" id="path480"/>
    <path fill="#403f5d" fill-rule="nonzero" d="m6765.756564,9319.930415c0,218.69 -117,409.54 -291.5,514.95c-174.4,-105.41 -291.4,-296.26 -291.4,-514.95c0,-218.69 117,-409.54 291.4,-514.95c174.5,105.41 291.5,296.26 291.5,514.95" id="path482"/>
    <path fill="#eae7e4" fill-rule="nonzero" d="m6163.856564,8997.980415c88.9,0 161,72.07 161,160.98l-321.9,0c0,-88.91 72,-160.98 160.9,-160.98" id="path484"/>
    <path fill="#7a7aad" fill-rule="nonzero" d="m5147.856564,7553.950415l0,-1012.46l175.7,0l0,0c0,-204.86 166.1,-370.94 370.9,-370.94l183.8,0l0,1383.4l0,842.16l0,146.81c-422.9,-129.87 -730.4,-523.46 -730.4,-988.97" id="path486"/>
    <path fill="#565897" fill-rule="nonzero" d="m7217.856564,7553.950415l0,-1012.46l-175.7,0l0,0c0,-204.86 -166.1,-370.94 -371,-370.94l-183.8,0l0,1383.4l0,842.16l0,146.81c423,-129.87 730.5,-523.46 730.5,-988.97" id="path488"/>
    <path fill="#403f5d" fill-rule="nonzero" d="m6004.056564,8097.960415l159.8,159.79l-71.5,71.49l-159.8,-159.79l70,-4.42l1.5,-67.07" id="path490"/>
    <path fill="#403f5d" fill-rule="nonzero" d="m6323.656564,8097.960415l-159.8,159.79l71.5,71.49l159.8,-159.79l-70,-4.42l-1.5,-67.07" id="path492"/>
    <path fill="#9d3555" fill-rule="nonzero" d="m3466.336564,8333.590415c-80.63,0 -146.01,-65.37 -146.01,-146.01c0,-80.64 65.38,-146.01 146.01,-146.01c80.64,0 146.02,65.37 146.02,146.01c0,80.64 -65.38,146.01 -146.02,146.01zm275.12,-211.44c0,-151.94 -123.18,-275.11 -275.12,-275.11c-151.93,0 -275.11,123.17 -275.11,275.11c0,151.95 123.18,275.12 275.11,275.12c151.94,0 275.12,-123.17 275.12,-275.12" id="path494"/>
    <path fill="#565897" fill-rule="nonzero" d="m1337.246564,5513.970415l-862.21,-862.21l862.21,0l0,862.21z" id="path496"/>
    <path fill="#7a7aad" fill-rule="nonzero" d="m1433.206564,7741.280415l-282.39,0l0,101.31l282.39,0l0,-101.31" id="path498"/>
    <path fill="#7a7aad" fill-rule="nonzero" d="m6857.356564,7741.280415l-282.4,0l0,101.31l282.4,0l0,-101.31" id="path500"/>
    <path fill="#7a7aad" fill-rule="nonzero" d="m4135.856564,7108.800415l-282.38,0l0,101.31l282.38,0l0,-101.31" id="path502"/>
   </g>
  </g>
 </g>
</svg>
